<mxfile host="app.diagrams.net" modified="2022-07-30T16:07:58.398Z" agent="5.0 (X11)" etag="FvPHNOyorLjlJchf-A6B" version="20.2.2" type="github">
  <diagram id="gFPUKwVgswfMwWFSGncV" name="Page-1">
    <mxGraphModel dx="15710" dy="7145" grid="1" gridSize="10" guides="1" tooltips="1" connect="1" arrows="1" fold="1" page="1" pageScale="1" pageWidth="850" pageHeight="1100" math="0" shadow="0">
      <root>
        <mxCell id="0" />
        <mxCell id="1" parent="0" />
        <mxCell id="IPSGjuv_amCi_yh8qxrN-2" style="edgeStyle=none;rounded=0;orthogonalLoop=1;jettySize=auto;html=1;entryX=0.5;entryY=1;entryDx=0;entryDy=0;fontSize=15;strokeWidth=8;strokeColor=#990000;" edge="1" parent="1" source="IPSGjuv_amCi_yh8qxrN-5" target="IPSGjuv_amCi_yh8qxrN-18">
          <mxGeometry relative="1" as="geometry" />
        </mxCell>
        <mxCell id="IPSGjuv_amCi_yh8qxrN-3" style="edgeStyle=none;rounded=0;orthogonalLoop=1;jettySize=auto;html=1;fontSize=15;strokeWidth=8;strokeColor=#990000;" edge="1" parent="1" source="IPSGjuv_amCi_yh8qxrN-5" target="IPSGjuv_amCi_yh8qxrN-23">
          <mxGeometry relative="1" as="geometry" />
        </mxCell>
        <mxCell id="IPSGjuv_amCi_yh8qxrN-4" style="edgeStyle=none;rounded=0;orthogonalLoop=1;jettySize=auto;html=1;entryX=1;entryY=1;entryDx=0;entryDy=0;fontSize=15;strokeWidth=8;strokeColor=#990000;" edge="1" parent="1" source="IPSGjuv_amCi_yh8qxrN-5" target="IPSGjuv_amCi_yh8qxrN-27">
          <mxGeometry relative="1" as="geometry" />
        </mxCell>
        <mxCell id="IPSGjuv_amCi_yh8qxrN-5" value="Agent" style="ellipse;whiteSpace=wrap;html=1;aspect=fixed;fontSize=15;strokeWidth=8;strokeColor=#990000;" vertex="1" parent="1">
          <mxGeometry x="-8860" y="-2235.5" width="184.5" height="184.5" as="geometry" />
        </mxCell>
        <mxCell id="IPSGjuv_amCi_yh8qxrN-6" style="rounded=0;orthogonalLoop=1;jettySize=auto;html=1;fontSize=15;startArrow=none;" edge="1" parent="1" source="IPSGjuv_amCi_yh8qxrN-35" target="IPSGjuv_amCi_yh8qxrN-118">
          <mxGeometry relative="1" as="geometry" />
        </mxCell>
        <mxCell id="IPSGjuv_amCi_yh8qxrN-7" style="edgeStyle=none;rounded=0;orthogonalLoop=1;jettySize=auto;html=1;entryX=0.5;entryY=0;entryDx=0;entryDy=0;fontSize=15;startArrow=none;" edge="1" parent="1" source="IPSGjuv_amCi_yh8qxrN-37" target="IPSGjuv_amCi_yh8qxrN-121">
          <mxGeometry relative="1" as="geometry" />
        </mxCell>
        <mxCell id="IPSGjuv_amCi_yh8qxrN-8" style="edgeStyle=none;rounded=0;orthogonalLoop=1;jettySize=auto;html=1;entryX=0.5;entryY=0;entryDx=0;entryDy=0;fontSize=15;startArrow=none;" edge="1" parent="1" source="IPSGjuv_amCi_yh8qxrN-39" target="IPSGjuv_amCi_yh8qxrN-125">
          <mxGeometry relative="1" as="geometry" />
        </mxCell>
        <mxCell id="IPSGjuv_amCi_yh8qxrN-9" style="edgeStyle=none;rounded=0;orthogonalLoop=1;jettySize=auto;html=1;entryX=0.5;entryY=0;entryDx=0;entryDy=0;fontSize=15;startArrow=none;" edge="1" parent="1" source="IPSGjuv_amCi_yh8qxrN-33" target="IPSGjuv_amCi_yh8qxrN-115">
          <mxGeometry relative="1" as="geometry" />
        </mxCell>
        <mxCell id="IPSGjuv_amCi_yh8qxrN-10" value="Lightningrod Labs" style="ellipse;whiteSpace=wrap;html=1;aspect=fixed;fontSize=15;" vertex="1" parent="1">
          <mxGeometry x="-9580" y="-3375" width="184.5" height="184.5" as="geometry" />
        </mxCell>
        <mxCell id="IPSGjuv_amCi_yh8qxrN-11" style="edgeStyle=none;rounded=0;orthogonalLoop=1;jettySize=auto;html=1;entryX=0.5;entryY=0;entryDx=0;entryDy=0;fontSize=15;startArrow=none;" edge="1" parent="1" source="IPSGjuv_amCi_yh8qxrN-41" target="IPSGjuv_amCi_yh8qxrN-128">
          <mxGeometry relative="1" as="geometry" />
        </mxCell>
        <mxCell id="IPSGjuv_amCi_yh8qxrN-12" style="edgeStyle=none;rounded=0;orthogonalLoop=1;jettySize=auto;html=1;entryX=0.5;entryY=0;entryDx=0;entryDy=0;fontSize=15;startArrow=none;" edge="1" parent="1" source="IPSGjuv_amCi_yh8qxrN-43" target="IPSGjuv_amCi_yh8qxrN-131">
          <mxGeometry relative="1" as="geometry" />
        </mxCell>
        <mxCell id="IPSGjuv_amCi_yh8qxrN-13" style="edgeStyle=none;rounded=0;orthogonalLoop=1;jettySize=auto;html=1;entryX=0.5;entryY=0;entryDx=0;entryDy=0;fontSize=15;startArrow=none;" edge="1" parent="1" source="IPSGjuv_amCi_yh8qxrN-45" target="IPSGjuv_amCi_yh8qxrN-135">
          <mxGeometry relative="1" as="geometry" />
        </mxCell>
        <mxCell id="IPSGjuv_amCi_yh8qxrN-14" value="Holochain in Action" style="ellipse;whiteSpace=wrap;html=1;aspect=fixed;fontSize=15;" vertex="1" parent="1">
          <mxGeometry x="-8460" y="-3459" width="184.5" height="184.5" as="geometry" />
        </mxCell>
        <mxCell id="IPSGjuv_amCi_yh8qxrN-15" style="edgeStyle=none;rounded=0;orthogonalLoop=1;jettySize=auto;html=1;entryX=0.449;entryY=1.05;entryDx=0;entryDy=0;entryPerimeter=0;fontSize=15;exitX=0.5;exitY=0;exitDx=0;exitDy=0;" edge="1" parent="1" source="IPSGjuv_amCi_yh8qxrN-50" target="IPSGjuv_amCi_yh8qxrN-131">
          <mxGeometry relative="1" as="geometry" />
        </mxCell>
        <mxCell id="IPSGjuv_amCi_yh8qxrN-16" style="edgeStyle=none;rounded=0;orthogonalLoop=1;jettySize=auto;html=1;entryX=0.5;entryY=1;entryDx=0;entryDy=0;fontSize=15;exitX=0.5;exitY=0;exitDx=0;exitDy=0;" edge="1" parent="1" source="IPSGjuv_amCi_yh8qxrN-50" target="IPSGjuv_amCi_yh8qxrN-121">
          <mxGeometry relative="1" as="geometry" />
        </mxCell>
        <mxCell id="IPSGjuv_amCi_yh8qxrN-17" style="edgeStyle=none;rounded=0;orthogonalLoop=1;jettySize=auto;html=1;fontSize=15;fontColor=#000000;strokeColor=#000000;strokeWidth=1;" edge="1" parent="1" source="IPSGjuv_amCi_yh8qxrN-18" target="IPSGjuv_amCi_yh8qxrN-50">
          <mxGeometry relative="1" as="geometry" />
        </mxCell>
        <mxCell id="IPSGjuv_amCi_yh8qxrN-18" value="Notebooks" style="rounded=1;whiteSpace=wrap;html=1;fontSize=15;" vertex="1" parent="1">
          <mxGeometry x="-8847.75" y="-2491" width="160" height="60" as="geometry" />
        </mxCell>
        <mxCell id="IPSGjuv_amCi_yh8qxrN-19" style="edgeStyle=none;rounded=0;orthogonalLoop=1;jettySize=auto;html=1;entryX=0.601;entryY=1.026;entryDx=0;entryDy=0;entryPerimeter=0;fontSize=15;exitX=0.5;exitY=0;exitDx=0;exitDy=0;" edge="1" parent="1" source="IPSGjuv_amCi_yh8qxrN-51" target="IPSGjuv_amCi_yh8qxrN-125">
          <mxGeometry relative="1" as="geometry">
            <mxPoint x="-8530" y="-2605" as="sourcePoint" />
          </mxGeometry>
        </mxCell>
        <mxCell id="IPSGjuv_amCi_yh8qxrN-20" style="edgeStyle=none;rounded=0;orthogonalLoop=1;jettySize=auto;html=1;entryX=0.408;entryY=1.05;entryDx=0;entryDy=0;entryPerimeter=0;fontSize=15;exitX=0.5;exitY=0;exitDx=0;exitDy=0;" edge="1" parent="1" source="IPSGjuv_amCi_yh8qxrN-51" target="IPSGjuv_amCi_yh8qxrN-135">
          <mxGeometry relative="1" as="geometry">
            <mxPoint x="-8530" y="-2605" as="sourcePoint" />
          </mxGeometry>
        </mxCell>
        <mxCell id="IPSGjuv_amCi_yh8qxrN-21" style="edgeStyle=none;rounded=0;orthogonalLoop=1;jettySize=auto;html=1;entryX=0.5;entryY=1;entryDx=0;entryDy=0;fontSize=26;fontColor=#990000;strokeColor=#000000;strokeWidth=1;" edge="1" parent="1" source="IPSGjuv_amCi_yh8qxrN-23" target="IPSGjuv_amCi_yh8qxrN-51">
          <mxGeometry relative="1" as="geometry">
            <mxPoint x="-8530" y="-2545" as="targetPoint" />
          </mxGeometry>
        </mxCell>
        <mxCell id="IPSGjuv_amCi_yh8qxrN-22" style="edgeStyle=none;rounded=0;orthogonalLoop=1;jettySize=auto;html=1;entryX=0.5;entryY=1;entryDx=0;entryDy=0;fontSize=26;fontColor=#990000;strokeColor=#000000;strokeWidth=1;" edge="1" parent="1" source="IPSGjuv_amCi_yh8qxrN-23" target="IPSGjuv_amCi_yh8qxrN-52">
          <mxGeometry relative="1" as="geometry">
            <mxPoint x="-8280" y="-2535" as="targetPoint" />
          </mxGeometry>
        </mxCell>
        <mxCell id="IPSGjuv_amCi_yh8qxrN-23" value="Calendar" style="rounded=1;whiteSpace=wrap;html=1;fontSize=15;" vertex="1" parent="1">
          <mxGeometry x="-8520" y="-2446" width="160" height="60" as="geometry" />
        </mxCell>
        <mxCell id="IPSGjuv_amCi_yh8qxrN-24" style="edgeStyle=none;rounded=0;orthogonalLoop=1;jettySize=auto;html=1;entryX=0.5;entryY=1;entryDx=0;entryDy=0;fontSize=15;exitX=0.5;exitY=0;exitDx=0;exitDy=0;" edge="1" parent="1" source="IPSGjuv_amCi_yh8qxrN-49" target="IPSGjuv_amCi_yh8qxrN-118">
          <mxGeometry relative="1" as="geometry" />
        </mxCell>
        <mxCell id="IPSGjuv_amCi_yh8qxrN-25" style="edgeStyle=none;rounded=0;orthogonalLoop=1;jettySize=auto;html=1;entryX=0.5;entryY=1;entryDx=0;entryDy=0;fontSize=15;" edge="1" parent="1" source="IPSGjuv_amCi_yh8qxrN-49" target="IPSGjuv_amCi_yh8qxrN-128">
          <mxGeometry relative="1" as="geometry" />
        </mxCell>
        <mxCell id="IPSGjuv_amCi_yh8qxrN-26" style="edgeStyle=none;rounded=0;orthogonalLoop=1;jettySize=auto;html=1;entryX=0.5;entryY=1;entryDx=0;entryDy=0;fontSize=15;fontColor=#000000;strokeColor=#000000;strokeWidth=1;" edge="1" parent="1" source="IPSGjuv_amCi_yh8qxrN-27" target="IPSGjuv_amCi_yh8qxrN-49">
          <mxGeometry relative="1" as="geometry" />
        </mxCell>
        <mxCell id="IPSGjuv_amCi_yh8qxrN-27" value="Where" style="rounded=1;whiteSpace=wrap;html=1;fontSize=15;" vertex="1" parent="1">
          <mxGeometry x="-9110" y="-2433.75" width="160" height="60" as="geometry" />
        </mxCell>
        <mxCell id="IPSGjuv_amCi_yh8qxrN-28" style="edgeStyle=none;rounded=0;orthogonalLoop=1;jettySize=auto;html=1;entryX=0.5;entryY=1;entryDx=0;entryDy=0;fontSize=15;startArrow=none;" edge="1" parent="1" source="IPSGjuv_amCi_yh8qxrN-47" target="IPSGjuv_amCi_yh8qxrN-115">
          <mxGeometry relative="1" as="geometry" />
        </mxCell>
        <mxCell id="IPSGjuv_amCi_yh8qxrN-29" value="Forum" style="rounded=1;whiteSpace=wrap;html=1;fontSize=15;" vertex="1" parent="1">
          <mxGeometry x="-9190" y="-2271" width="160" height="60" as="geometry" />
        </mxCell>
        <mxCell id="IPSGjuv_amCi_yh8qxrN-30" value="&lt;font style=&quot;font-size: 26px&quot; color=&quot;#990000&quot;&gt;&lt;b&gt;AGENT PERSPECTIVE&lt;/b&gt;&lt;/font&gt;" style="text;html=1;strokeColor=none;fillColor=none;align=center;verticalAlign=middle;whiteSpace=wrap;rounded=0;fontSize=15;" vertex="1" parent="1">
          <mxGeometry x="-9280" y="-2095.5" width="300" height="80" as="geometry" />
        </mxCell>
        <mxCell id="IPSGjuv_amCi_yh8qxrN-31" style="edgeStyle=none;rounded=0;orthogonalLoop=1;jettySize=auto;html=1;fontSize=26;fontColor=#990000;strokeColor=#000000;strokeWidth=1;exitX=0.529;exitY=0;exitDx=0;exitDy=0;exitPerimeter=0;" edge="1" parent="1" source="IPSGjuv_amCi_yh8qxrN-52" target="IPSGjuv_amCi_yh8qxrN-135">
          <mxGeometry relative="1" as="geometry">
            <mxPoint x="-8280.326086956522" y="-2595" as="sourcePoint" />
          </mxGeometry>
        </mxCell>
        <mxCell id="IPSGjuv_amCi_yh8qxrN-32" style="edgeStyle=none;rounded=0;orthogonalLoop=1;jettySize=auto;html=1;entryX=0.75;entryY=1;entryDx=0;entryDy=0;fontSize=26;fontColor=#990000;strokeColor=#000000;strokeWidth=1;exitX=0.5;exitY=0;exitDx=0;exitDy=0;" edge="1" parent="1" source="IPSGjuv_amCi_yh8qxrN-52" target="IPSGjuv_amCi_yh8qxrN-125">
          <mxGeometry relative="1" as="geometry">
            <mxPoint x="-8327.877237851662" y="-2595" as="sourcePoint" />
          </mxGeometry>
        </mxCell>
        <mxCell id="IPSGjuv_amCi_yh8qxrN-33" value="&lt;font style=&quot;font-size: 15px&quot; color=&quot;#000000&quot;&gt;Instance Renderer&lt;/font&gt;" style="shape=process;whiteSpace=wrap;html=1;backgroundOutline=1;fontSize=26;fontColor=#990000;strokeColor=#000000;strokeWidth=1;" vertex="1" parent="1">
          <mxGeometry x="-9760" y="-3065" width="170" height="60" as="geometry" />
        </mxCell>
        <mxCell id="IPSGjuv_amCi_yh8qxrN-34" value="" style="edgeStyle=none;rounded=0;orthogonalLoop=1;jettySize=auto;html=1;entryX=0.5;entryY=0;entryDx=0;entryDy=0;fontSize=15;endArrow=none;" edge="1" parent="1" source="IPSGjuv_amCi_yh8qxrN-10" target="IPSGjuv_amCi_yh8qxrN-33">
          <mxGeometry relative="1" as="geometry">
            <mxPoint x="-9528.676400660004" y="-3200.075383405695" as="sourcePoint" />
            <mxPoint x="-9705" y="-2845" as="targetPoint" />
          </mxGeometry>
        </mxCell>
        <mxCell id="IPSGjuv_amCi_yh8qxrN-35" value="&lt;font style=&quot;font-size: 15px&quot; color=&quot;#000000&quot;&gt;Instance Renderer&lt;/font&gt;" style="shape=process;whiteSpace=wrap;html=1;backgroundOutline=1;fontSize=26;fontColor=#990000;strokeColor=#000000;strokeWidth=1;" vertex="1" parent="1">
          <mxGeometry x="-9580" y="-3130.5" width="170" height="60" as="geometry" />
        </mxCell>
        <mxCell id="IPSGjuv_amCi_yh8qxrN-36" value="" style="rounded=0;orthogonalLoop=1;jettySize=auto;html=1;fontSize=15;endArrow=none;" edge="1" parent="1" source="IPSGjuv_amCi_yh8qxrN-10" target="IPSGjuv_amCi_yh8qxrN-35">
          <mxGeometry relative="1" as="geometry">
            <mxPoint x="-9484.987989963234" y="-3190.541357234135" as="sourcePoint" />
            <mxPoint x="-9475.938074800735" y="-2905" as="targetPoint" />
          </mxGeometry>
        </mxCell>
        <mxCell id="IPSGjuv_amCi_yh8qxrN-37" value="&lt;font style=&quot;font-size: 15px&quot; color=&quot;#000000&quot;&gt;Instance Renderer&lt;/font&gt;" style="shape=process;whiteSpace=wrap;html=1;backgroundOutline=1;fontSize=26;fontColor=#990000;strokeColor=#000000;strokeWidth=1;" vertex="1" parent="1">
          <mxGeometry x="-9432.75" y="-3055" width="170" height="60" as="geometry" />
        </mxCell>
        <mxCell id="IPSGjuv_amCi_yh8qxrN-38" value="" style="edgeStyle=none;rounded=0;orthogonalLoop=1;jettySize=auto;html=1;entryX=0.5;entryY=0;entryDx=0;entryDy=0;fontSize=15;endArrow=none;" edge="1" parent="1" source="IPSGjuv_amCi_yh8qxrN-10" target="IPSGjuv_amCi_yh8qxrN-37">
          <mxGeometry relative="1" as="geometry">
            <mxPoint x="-9442.141190558958" y="-3202.563348982727" as="sourcePoint" />
            <mxPoint x="-9300" y="-2953.75" as="targetPoint" />
          </mxGeometry>
        </mxCell>
        <mxCell id="IPSGjuv_amCi_yh8qxrN-39" value="&lt;font style=&quot;font-size: 15px&quot; color=&quot;#000000&quot;&gt;Instance Renderer&lt;/font&gt;" style="shape=process;whiteSpace=wrap;html=1;backgroundOutline=1;fontSize=26;fontColor=#990000;strokeColor=#000000;strokeWidth=1;" vertex="1" parent="1">
          <mxGeometry x="-9350" y="-3215" width="170" height="60" as="geometry" />
        </mxCell>
        <mxCell id="IPSGjuv_amCi_yh8qxrN-40" value="" style="edgeStyle=none;rounded=0;orthogonalLoop=1;jettySize=auto;html=1;entryX=0.5;entryY=0;entryDx=0;entryDy=0;fontSize=15;endArrow=none;" edge="1" parent="1" source="IPSGjuv_amCi_yh8qxrN-10" target="IPSGjuv_amCi_yh8qxrN-39">
          <mxGeometry relative="1" as="geometry">
            <mxPoint x="-9403.18658216836" y="-3245.8841504284537" as="sourcePoint" />
            <mxPoint x="-9100" y="-3113.75" as="targetPoint" />
          </mxGeometry>
        </mxCell>
        <mxCell id="IPSGjuv_amCi_yh8qxrN-41" value="&lt;font style=&quot;font-size: 15px&quot; color=&quot;#000000&quot;&gt;Instance Renderer&lt;/font&gt;" style="shape=process;whiteSpace=wrap;html=1;backgroundOutline=1;fontSize=26;fontColor=#990000;strokeColor=#000000;strokeWidth=1;" vertex="1" parent="1">
          <mxGeometry x="-8720" y="-3295" width="170" height="60" as="geometry" />
        </mxCell>
        <mxCell id="IPSGjuv_amCi_yh8qxrN-42" value="" style="edgeStyle=none;rounded=0;orthogonalLoop=1;jettySize=auto;html=1;entryX=0.5;entryY=0;entryDx=0;entryDy=0;fontSize=15;endArrow=none;" edge="1" parent="1" source="IPSGjuv_amCi_yh8qxrN-14" target="IPSGjuv_amCi_yh8qxrN-41">
          <mxGeometry relative="1" as="geometry">
            <mxPoint x="-8449.757902830348" y="-3324.503504602547" as="sourcePoint" />
            <mxPoint x="-8740" y="-3175" as="targetPoint" />
          </mxGeometry>
        </mxCell>
        <mxCell id="IPSGjuv_amCi_yh8qxrN-43" value="&lt;font style=&quot;font-size: 15px&quot; color=&quot;#000000&quot;&gt;Instance Renderer&lt;/font&gt;" style="shape=process;whiteSpace=wrap;html=1;backgroundOutline=1;fontSize=26;fontColor=#990000;strokeColor=#000000;strokeWidth=1;" vertex="1" parent="1">
          <mxGeometry x="-8585.5" y="-3225" width="170" height="60" as="geometry" />
        </mxCell>
        <mxCell id="IPSGjuv_amCi_yh8qxrN-44" value="" style="edgeStyle=none;rounded=0;orthogonalLoop=1;jettySize=auto;html=1;entryX=0.5;entryY=0;entryDx=0;entryDy=0;fontSize=15;endArrow=none;" edge="1" parent="1" source="IPSGjuv_amCi_yh8qxrN-14" target="IPSGjuv_amCi_yh8qxrN-43">
          <mxGeometry relative="1" as="geometry">
            <mxPoint x="-8419.587866993294" y="-3290.4420839912364" as="sourcePoint" />
            <mxPoint x="-8570" y="-3070.5" as="targetPoint" />
          </mxGeometry>
        </mxCell>
        <mxCell id="IPSGjuv_amCi_yh8qxrN-45" value="&lt;font style=&quot;font-size: 15px&quot; color=&quot;#000000&quot;&gt;Instance Renderer&lt;/font&gt;" style="shape=process;whiteSpace=wrap;html=1;backgroundOutline=1;fontSize=26;fontColor=#990000;strokeColor=#000000;strokeWidth=1;" vertex="1" parent="1">
          <mxGeometry x="-8370" y="-3215" width="170" height="60" as="geometry" />
        </mxCell>
        <mxCell id="IPSGjuv_amCi_yh8qxrN-46" value="" style="edgeStyle=none;rounded=0;orthogonalLoop=1;jettySize=auto;html=1;entryX=0.5;entryY=0;entryDx=0;entryDy=0;fontSize=15;endArrow=none;" edge="1" parent="1" source="IPSGjuv_amCi_yh8qxrN-14" target="IPSGjuv_amCi_yh8qxrN-45">
          <mxGeometry relative="1" as="geometry">
            <mxPoint x="-8344.114383282962" y="-3277.5792642039078" as="sourcePoint" />
            <mxPoint x="-8285" y="-3055" as="targetPoint" />
          </mxGeometry>
        </mxCell>
        <mxCell id="IPSGjuv_amCi_yh8qxrN-47" value="&lt;font style=&quot;font-size: 15px&quot; color=&quot;#000000&quot;&gt;Class Renderer&lt;/font&gt;" style="shape=process;whiteSpace=wrap;html=1;backgroundOutline=1;fontSize=26;fontColor=#990000;strokeColor=#000000;strokeWidth=1;" vertex="1" parent="1">
          <mxGeometry x="-9370" y="-2405" width="170" height="60" as="geometry" />
        </mxCell>
        <mxCell id="IPSGjuv_amCi_yh8qxrN-48" value="" style="edgeStyle=none;rounded=0;orthogonalLoop=1;jettySize=auto;html=1;entryX=0.5;entryY=1;entryDx=0;entryDy=0;fontSize=15;endArrow=none;" edge="1" parent="1" source="IPSGjuv_amCi_yh8qxrN-29" target="IPSGjuv_amCi_yh8qxrN-47">
          <mxGeometry relative="1" as="geometry">
            <mxPoint x="-9142.8125" y="-2271" as="sourcePoint" />
            <mxPoint x="-9705" y="-2785" as="targetPoint" />
          </mxGeometry>
        </mxCell>
        <mxCell id="IPSGjuv_amCi_yh8qxrN-49" value="&lt;font style=&quot;font-size: 15px&quot; color=&quot;#000000&quot;&gt;Class Renderer&lt;/font&gt;" style="shape=process;whiteSpace=wrap;html=1;backgroundOutline=1;fontSize=26;fontColor=#990000;strokeColor=#000000;strokeWidth=1;" vertex="1" parent="1">
          <mxGeometry x="-9195" y="-2535" width="170" height="60" as="geometry" />
        </mxCell>
        <mxCell id="IPSGjuv_amCi_yh8qxrN-50" value="&lt;font style=&quot;font-size: 15px&quot; color=&quot;#000000&quot;&gt;Class Renderer&lt;/font&gt;" style="shape=process;whiteSpace=wrap;html=1;backgroundOutline=1;fontSize=26;fontColor=#990000;strokeColor=#000000;strokeWidth=1;" vertex="1" parent="1">
          <mxGeometry x="-8890" y="-2595" width="170" height="60" as="geometry" />
        </mxCell>
        <mxCell id="IPSGjuv_amCi_yh8qxrN-51" value="&lt;font style=&quot;font-size: 15px&quot; color=&quot;#000000&quot;&gt;Class Renderer A&lt;/font&gt;" style="shape=process;whiteSpace=wrap;html=1;backgroundOutline=1;fontSize=26;fontColor=#990000;strokeColor=#000000;strokeWidth=1;" vertex="1" parent="1">
          <mxGeometry x="-8630" y="-2595" width="170" height="60" as="geometry" />
        </mxCell>
        <mxCell id="IPSGjuv_amCi_yh8qxrN-52" value="&lt;font style=&quot;font-size: 15px&quot; color=&quot;#000000&quot;&gt;Class Renderer B&lt;/font&gt;" style="shape=process;whiteSpace=wrap;html=1;backgroundOutline=1;fontSize=26;fontColor=#990000;strokeColor=#000000;strokeWidth=1;" vertex="1" parent="1">
          <mxGeometry x="-8380" y="-2595" width="170" height="60" as="geometry" />
        </mxCell>
        <mxCell id="IPSGjuv_amCi_yh8qxrN-53" style="edgeStyle=none;rounded=0;orthogonalLoop=1;jettySize=auto;html=1;entryX=0.5;entryY=1;entryDx=0;entryDy=0;fontSize=15;strokeWidth=1;strokeColor=#000000;" edge="1" parent="1" source="IPSGjuv_amCi_yh8qxrN-57" target="IPSGjuv_amCi_yh8qxrN-77">
          <mxGeometry relative="1" as="geometry" />
        </mxCell>
        <mxCell id="IPSGjuv_amCi_yh8qxrN-54" style="edgeStyle=none;rounded=0;orthogonalLoop=1;jettySize=auto;html=1;fontSize=15;strokeWidth=1;strokeColor=#000000;" edge="1" parent="1" source="IPSGjuv_amCi_yh8qxrN-57" target="IPSGjuv_amCi_yh8qxrN-82">
          <mxGeometry relative="1" as="geometry" />
        </mxCell>
        <mxCell id="IPSGjuv_amCi_yh8qxrN-55" style="edgeStyle=none;rounded=0;orthogonalLoop=1;jettySize=auto;html=1;entryX=0.5;entryY=1;entryDx=0;entryDy=0;fontSize=15;strokeWidth=1;strokeColor=#000000;" edge="1" parent="1" source="IPSGjuv_amCi_yh8qxrN-57" target="IPSGjuv_amCi_yh8qxrN-88">
          <mxGeometry relative="1" as="geometry" />
        </mxCell>
        <mxCell id="IPSGjuv_amCi_yh8qxrN-56" style="edgeStyle=none;rounded=0;orthogonalLoop=1;jettySize=auto;html=1;entryX=1;entryY=1;entryDx=0;entryDy=0;fontSize=15;strokeWidth=1;strokeColor=#000000;" edge="1" parent="1" source="IPSGjuv_amCi_yh8qxrN-57" target="IPSGjuv_amCi_yh8qxrN-86">
          <mxGeometry relative="1" as="geometry" />
        </mxCell>
        <mxCell id="IPSGjuv_amCi_yh8qxrN-57" value="Agent" style="ellipse;whiteSpace=wrap;html=1;aspect=fixed;fontSize=15;strokeWidth=1;strokeColor=#000000;" vertex="1" parent="1">
          <mxGeometry x="-6730" y="-2235.5" width="184.5" height="184.5" as="geometry" />
        </mxCell>
        <mxCell id="IPSGjuv_amCi_yh8qxrN-58" style="rounded=0;orthogonalLoop=1;jettySize=auto;html=1;fontSize=15;startArrow=none;strokeWidth=8;strokeColor=#000099;" edge="1" parent="1" source="IPSGjuv_amCi_yh8qxrN-93" target="IPSGjuv_amCi_yh8qxrN-69">
          <mxGeometry relative="1" as="geometry" />
        </mxCell>
        <mxCell id="IPSGjuv_amCi_yh8qxrN-59" style="edgeStyle=none;rounded=0;orthogonalLoop=1;jettySize=auto;html=1;entryX=0.5;entryY=0;entryDx=0;entryDy=0;fontSize=15;startArrow=none;strokeWidth=8;strokeColor=#000099;" edge="1" parent="1" source="IPSGjuv_amCi_yh8qxrN-95" target="IPSGjuv_amCi_yh8qxrN-68">
          <mxGeometry relative="1" as="geometry" />
        </mxCell>
        <mxCell id="IPSGjuv_amCi_yh8qxrN-60" style="edgeStyle=none;rounded=0;orthogonalLoop=1;jettySize=auto;html=1;entryX=0.5;entryY=0;entryDx=0;entryDy=0;fontSize=15;startArrow=none;strokeWidth=8;strokeColor=#000099;" edge="1" parent="1" source="IPSGjuv_amCi_yh8qxrN-97" target="IPSGjuv_amCi_yh8qxrN-67">
          <mxGeometry relative="1" as="geometry" />
        </mxCell>
        <mxCell id="IPSGjuv_amCi_yh8qxrN-61" style="edgeStyle=none;rounded=0;orthogonalLoop=1;jettySize=auto;html=1;entryX=0.5;entryY=0;entryDx=0;entryDy=0;fontSize=15;startArrow=none;strokeWidth=8;strokeColor=#000099;" edge="1" parent="1" source="IPSGjuv_amCi_yh8qxrN-91" target="IPSGjuv_amCi_yh8qxrN-70">
          <mxGeometry relative="1" as="geometry" />
        </mxCell>
        <mxCell id="IPSGjuv_amCi_yh8qxrN-62" value="Lightningrod Labs" style="ellipse;whiteSpace=wrap;html=1;aspect=fixed;fontSize=15;strokeColor=#000099;strokeWidth=8;" vertex="1" parent="1">
          <mxGeometry x="-7450" y="-3375" width="184.5" height="184.5" as="geometry" />
        </mxCell>
        <mxCell id="IPSGjuv_amCi_yh8qxrN-63" style="edgeStyle=none;rounded=0;orthogonalLoop=1;jettySize=auto;html=1;entryX=0.5;entryY=0;entryDx=0;entryDy=0;fontSize=15;startArrow=none;" edge="1" parent="1" source="IPSGjuv_amCi_yh8qxrN-99" target="IPSGjuv_amCi_yh8qxrN-71">
          <mxGeometry relative="1" as="geometry" />
        </mxCell>
        <mxCell id="IPSGjuv_amCi_yh8qxrN-64" style="edgeStyle=none;rounded=0;orthogonalLoop=1;jettySize=auto;html=1;entryX=0.5;entryY=0;entryDx=0;entryDy=0;fontSize=15;startArrow=none;" edge="1" parent="1" source="IPSGjuv_amCi_yh8qxrN-101" target="IPSGjuv_amCi_yh8qxrN-72">
          <mxGeometry relative="1" as="geometry" />
        </mxCell>
        <mxCell id="IPSGjuv_amCi_yh8qxrN-65" style="edgeStyle=none;rounded=0;orthogonalLoop=1;jettySize=auto;html=1;entryX=0.5;entryY=0;entryDx=0;entryDy=0;fontSize=15;startArrow=none;" edge="1" parent="1" source="IPSGjuv_amCi_yh8qxrN-103" target="IPSGjuv_amCi_yh8qxrN-73">
          <mxGeometry relative="1" as="geometry" />
        </mxCell>
        <mxCell id="IPSGjuv_amCi_yh8qxrN-66" value="Holochain in Action" style="ellipse;whiteSpace=wrap;html=1;aspect=fixed;fontSize=15;" vertex="1" parent="1">
          <mxGeometry x="-6330" y="-3459" width="184.5" height="184.5" as="geometry" />
        </mxCell>
        <mxCell id="IPSGjuv_amCi_yh8qxrN-67" value="Calendar @ Lightningrod Labs" style="rounded=1;whiteSpace=wrap;html=1;fontSize=15;" vertex="1" parent="1">
          <mxGeometry x="-7050" y="-3113.75" width="160" height="60" as="geometry" />
        </mxCell>
        <mxCell id="IPSGjuv_amCi_yh8qxrN-68" value="Notebooks @ Lightningrod Labs" style="rounded=1;whiteSpace=wrap;html=1;fontSize=15;" vertex="1" parent="1">
          <mxGeometry x="-7250" y="-2953.75" width="160" height="60" as="geometry" />
        </mxCell>
        <mxCell id="IPSGjuv_amCi_yh8qxrN-69" value="Where @ Lightningrod Labs" style="rounded=1;whiteSpace=wrap;html=1;fontSize=15;" vertex="1" parent="1">
          <mxGeometry x="-7450" y="-2915" width="150" height="60" as="geometry" />
        </mxCell>
        <mxCell id="IPSGjuv_amCi_yh8qxrN-70" value="Forum @ Lightningrod Labs" style="rounded=1;whiteSpace=wrap;html=1;fontSize=15;" vertex="1" parent="1">
          <mxGeometry x="-7670" y="-2875" width="170" height="60" as="geometry" />
        </mxCell>
        <mxCell id="IPSGjuv_amCi_yh8qxrN-71" value="Where @ Holochain in Action" style="rounded=1;whiteSpace=wrap;html=1;fontSize=15;" vertex="1" parent="1">
          <mxGeometry x="-6670" y="-3175" width="120" height="60" as="geometry" />
        </mxCell>
        <mxCell id="IPSGjuv_amCi_yh8qxrN-72" value="Notebooks @ Holochain in Action" style="rounded=1;whiteSpace=wrap;html=1;fontSize=15;" vertex="1" parent="1">
          <mxGeometry x="-6520" y="-3070.5" width="160" height="60" as="geometry" />
        </mxCell>
        <mxCell id="IPSGjuv_amCi_yh8qxrN-73" value="Calendar @ Holochain in Action" style="rounded=1;whiteSpace=wrap;html=1;fontSize=15;" vertex="1" parent="1">
          <mxGeometry x="-6250" y="-3055" width="190" height="60" as="geometry" />
        </mxCell>
        <mxCell id="IPSGjuv_amCi_yh8qxrN-74" style="edgeStyle=none;rounded=0;orthogonalLoop=1;jettySize=auto;html=1;entryX=0.449;entryY=1.05;entryDx=0;entryDy=0;entryPerimeter=0;fontSize=15;exitX=0.5;exitY=0;exitDx=0;exitDy=0;" edge="1" parent="1" source="IPSGjuv_amCi_yh8qxrN-108" target="IPSGjuv_amCi_yh8qxrN-72">
          <mxGeometry relative="1" as="geometry" />
        </mxCell>
        <mxCell id="IPSGjuv_amCi_yh8qxrN-75" style="edgeStyle=none;rounded=0;orthogonalLoop=1;jettySize=auto;html=1;entryX=0.5;entryY=1;entryDx=0;entryDy=0;fontSize=15;exitX=0.5;exitY=0;exitDx=0;exitDy=0;" edge="1" parent="1" source="IPSGjuv_amCi_yh8qxrN-108" target="IPSGjuv_amCi_yh8qxrN-68">
          <mxGeometry relative="1" as="geometry" />
        </mxCell>
        <mxCell id="IPSGjuv_amCi_yh8qxrN-76" style="edgeStyle=none;rounded=0;orthogonalLoop=1;jettySize=auto;html=1;fontSize=15;fontColor=#000000;strokeColor=#000000;strokeWidth=1;" edge="1" parent="1" source="IPSGjuv_amCi_yh8qxrN-77" target="IPSGjuv_amCi_yh8qxrN-108">
          <mxGeometry relative="1" as="geometry" />
        </mxCell>
        <mxCell id="IPSGjuv_amCi_yh8qxrN-77" value="Notebooks" style="rounded=1;whiteSpace=wrap;html=1;fontSize=15;" vertex="1" parent="1">
          <mxGeometry x="-6717.75" y="-2491" width="160" height="60" as="geometry" />
        </mxCell>
        <mxCell id="IPSGjuv_amCi_yh8qxrN-78" style="edgeStyle=none;rounded=0;orthogonalLoop=1;jettySize=auto;html=1;entryX=0.601;entryY=1.026;entryDx=0;entryDy=0;entryPerimeter=0;fontSize=15;exitX=0.5;exitY=0;exitDx=0;exitDy=0;" edge="1" parent="1" source="IPSGjuv_amCi_yh8qxrN-109" target="IPSGjuv_amCi_yh8qxrN-67">
          <mxGeometry relative="1" as="geometry">
            <mxPoint x="-6400" y="-2605" as="sourcePoint" />
          </mxGeometry>
        </mxCell>
        <mxCell id="IPSGjuv_amCi_yh8qxrN-79" style="edgeStyle=none;rounded=0;orthogonalLoop=1;jettySize=auto;html=1;entryX=0.408;entryY=1.05;entryDx=0;entryDy=0;entryPerimeter=0;fontSize=15;exitX=0.5;exitY=0;exitDx=0;exitDy=0;" edge="1" parent="1" source="IPSGjuv_amCi_yh8qxrN-109" target="IPSGjuv_amCi_yh8qxrN-73">
          <mxGeometry relative="1" as="geometry">
            <mxPoint x="-6400" y="-2605" as="sourcePoint" />
          </mxGeometry>
        </mxCell>
        <mxCell id="IPSGjuv_amCi_yh8qxrN-80" style="edgeStyle=none;rounded=0;orthogonalLoop=1;jettySize=auto;html=1;entryX=0.5;entryY=1;entryDx=0;entryDy=0;fontSize=26;fontColor=#990000;strokeColor=#000000;strokeWidth=1;" edge="1" parent="1" source="IPSGjuv_amCi_yh8qxrN-82" target="IPSGjuv_amCi_yh8qxrN-109">
          <mxGeometry relative="1" as="geometry">
            <mxPoint x="-6400" y="-2545" as="targetPoint" />
          </mxGeometry>
        </mxCell>
        <mxCell id="IPSGjuv_amCi_yh8qxrN-81" style="edgeStyle=none;rounded=0;orthogonalLoop=1;jettySize=auto;html=1;entryX=0.5;entryY=1;entryDx=0;entryDy=0;fontSize=26;fontColor=#990000;strokeColor=#000000;strokeWidth=1;" edge="1" parent="1" source="IPSGjuv_amCi_yh8qxrN-82" target="IPSGjuv_amCi_yh8qxrN-110">
          <mxGeometry relative="1" as="geometry">
            <mxPoint x="-6150" y="-2535" as="targetPoint" />
          </mxGeometry>
        </mxCell>
        <mxCell id="IPSGjuv_amCi_yh8qxrN-82" value="Calendar" style="rounded=1;whiteSpace=wrap;html=1;fontSize=15;" vertex="1" parent="1">
          <mxGeometry x="-6390" y="-2446" width="160" height="60" as="geometry" />
        </mxCell>
        <mxCell id="IPSGjuv_amCi_yh8qxrN-83" style="edgeStyle=none;rounded=0;orthogonalLoop=1;jettySize=auto;html=1;entryX=0.5;entryY=1;entryDx=0;entryDy=0;fontSize=15;exitX=0.5;exitY=0;exitDx=0;exitDy=0;" edge="1" parent="1" source="IPSGjuv_amCi_yh8qxrN-107" target="IPSGjuv_amCi_yh8qxrN-69">
          <mxGeometry relative="1" as="geometry" />
        </mxCell>
        <mxCell id="IPSGjuv_amCi_yh8qxrN-84" style="edgeStyle=none;rounded=0;orthogonalLoop=1;jettySize=auto;html=1;entryX=0.5;entryY=1;entryDx=0;entryDy=0;fontSize=15;" edge="1" parent="1" source="IPSGjuv_amCi_yh8qxrN-107" target="IPSGjuv_amCi_yh8qxrN-71">
          <mxGeometry relative="1" as="geometry" />
        </mxCell>
        <mxCell id="IPSGjuv_amCi_yh8qxrN-85" style="edgeStyle=none;rounded=0;orthogonalLoop=1;jettySize=auto;html=1;entryX=0.5;entryY=1;entryDx=0;entryDy=0;fontSize=15;fontColor=#000000;strokeColor=#000000;strokeWidth=1;" edge="1" parent="1" source="IPSGjuv_amCi_yh8qxrN-86" target="IPSGjuv_amCi_yh8qxrN-107">
          <mxGeometry relative="1" as="geometry" />
        </mxCell>
        <mxCell id="IPSGjuv_amCi_yh8qxrN-86" value="Where" style="rounded=1;whiteSpace=wrap;html=1;fontSize=15;" vertex="1" parent="1">
          <mxGeometry x="-6980" y="-2433.75" width="160" height="60" as="geometry" />
        </mxCell>
        <mxCell id="IPSGjuv_amCi_yh8qxrN-87" style="edgeStyle=none;rounded=0;orthogonalLoop=1;jettySize=auto;html=1;entryX=0.5;entryY=1;entryDx=0;entryDy=0;fontSize=15;startArrow=none;" edge="1" parent="1" source="IPSGjuv_amCi_yh8qxrN-105" target="IPSGjuv_amCi_yh8qxrN-70">
          <mxGeometry relative="1" as="geometry" />
        </mxCell>
        <mxCell id="IPSGjuv_amCi_yh8qxrN-88" value="Forum" style="rounded=1;whiteSpace=wrap;html=1;fontSize=15;" vertex="1" parent="1">
          <mxGeometry x="-7060" y="-2271" width="160" height="60" as="geometry" />
        </mxCell>
        <mxCell id="IPSGjuv_amCi_yh8qxrN-89" style="edgeStyle=none;rounded=0;orthogonalLoop=1;jettySize=auto;html=1;fontSize=26;fontColor=#990000;strokeColor=#000000;strokeWidth=1;exitX=0.529;exitY=0;exitDx=0;exitDy=0;exitPerimeter=0;" edge="1" parent="1" source="IPSGjuv_amCi_yh8qxrN-110" target="IPSGjuv_amCi_yh8qxrN-73">
          <mxGeometry relative="1" as="geometry">
            <mxPoint x="-6150.326086956522" y="-2595" as="sourcePoint" />
          </mxGeometry>
        </mxCell>
        <mxCell id="IPSGjuv_amCi_yh8qxrN-90" style="edgeStyle=none;rounded=0;orthogonalLoop=1;jettySize=auto;html=1;entryX=0.75;entryY=1;entryDx=0;entryDy=0;fontSize=26;fontColor=#990000;strokeColor=#000000;strokeWidth=1;exitX=0.5;exitY=0;exitDx=0;exitDy=0;" edge="1" parent="1" source="IPSGjuv_amCi_yh8qxrN-110" target="IPSGjuv_amCi_yh8qxrN-67">
          <mxGeometry relative="1" as="geometry">
            <mxPoint x="-6197.877237851662" y="-2595" as="sourcePoint" />
          </mxGeometry>
        </mxCell>
        <mxCell id="IPSGjuv_amCi_yh8qxrN-91" value="&lt;font style=&quot;font-size: 15px&quot; color=&quot;#000000&quot;&gt;Instance Renderer&lt;/font&gt;" style="shape=process;whiteSpace=wrap;html=1;backgroundOutline=1;fontSize=26;fontColor=#990000;strokeColor=#000000;strokeWidth=1;" vertex="1" parent="1">
          <mxGeometry x="-7630" y="-3065" width="170" height="60" as="geometry" />
        </mxCell>
        <mxCell id="IPSGjuv_amCi_yh8qxrN-92" value="" style="edgeStyle=none;rounded=0;orthogonalLoop=1;jettySize=auto;html=1;entryX=0.5;entryY=0;entryDx=0;entryDy=0;fontSize=15;endArrow=none;strokeWidth=8;strokeColor=#000099;" edge="1" parent="1" source="IPSGjuv_amCi_yh8qxrN-62" target="IPSGjuv_amCi_yh8qxrN-91">
          <mxGeometry relative="1" as="geometry">
            <mxPoint x="-7398.676400660004" y="-3200.075383405695" as="sourcePoint" />
            <mxPoint x="-7575" y="-2845" as="targetPoint" />
          </mxGeometry>
        </mxCell>
        <mxCell id="IPSGjuv_amCi_yh8qxrN-93" value="&lt;font style=&quot;font-size: 15px&quot; color=&quot;#000000&quot;&gt;Instance Renderer&lt;/font&gt;" style="shape=process;whiteSpace=wrap;html=1;backgroundOutline=1;fontSize=26;fontColor=#990000;strokeColor=#000000;strokeWidth=1;" vertex="1" parent="1">
          <mxGeometry x="-7450" y="-3130.5" width="170" height="60" as="geometry" />
        </mxCell>
        <mxCell id="IPSGjuv_amCi_yh8qxrN-94" value="" style="rounded=0;orthogonalLoop=1;jettySize=auto;html=1;fontSize=15;endArrow=none;strokeWidth=8;strokeColor=#000099;" edge="1" parent="1" source="IPSGjuv_amCi_yh8qxrN-62" target="IPSGjuv_amCi_yh8qxrN-93">
          <mxGeometry relative="1" as="geometry">
            <mxPoint x="-7354.987989963234" y="-3190.541357234135" as="sourcePoint" />
            <mxPoint x="-7345.938074800735" y="-2905" as="targetPoint" />
          </mxGeometry>
        </mxCell>
        <mxCell id="IPSGjuv_amCi_yh8qxrN-95" value="&lt;font style=&quot;font-size: 15px&quot; color=&quot;#000000&quot;&gt;Instance Renderer&lt;/font&gt;" style="shape=process;whiteSpace=wrap;html=1;backgroundOutline=1;fontSize=26;fontColor=#990000;strokeColor=#000000;strokeWidth=1;" vertex="1" parent="1">
          <mxGeometry x="-7302.75" y="-3055" width="170" height="60" as="geometry" />
        </mxCell>
        <mxCell id="IPSGjuv_amCi_yh8qxrN-96" value="" style="edgeStyle=none;rounded=0;orthogonalLoop=1;jettySize=auto;html=1;entryX=0.5;entryY=0;entryDx=0;entryDy=0;fontSize=15;endArrow=none;strokeWidth=8;strokeColor=#000099;" edge="1" parent="1" source="IPSGjuv_amCi_yh8qxrN-62" target="IPSGjuv_amCi_yh8qxrN-95">
          <mxGeometry relative="1" as="geometry">
            <mxPoint x="-7312.1411905589575" y="-3202.563348982727" as="sourcePoint" />
            <mxPoint x="-7170" y="-2953.75" as="targetPoint" />
          </mxGeometry>
        </mxCell>
        <mxCell id="IPSGjuv_amCi_yh8qxrN-97" value="&lt;font style=&quot;font-size: 15px&quot; color=&quot;#000000&quot;&gt;Instance Renderer&lt;/font&gt;" style="shape=process;whiteSpace=wrap;html=1;backgroundOutline=1;fontSize=26;fontColor=#990000;strokeColor=#000000;strokeWidth=1;" vertex="1" parent="1">
          <mxGeometry x="-7220" y="-3215" width="170" height="60" as="geometry" />
        </mxCell>
        <mxCell id="IPSGjuv_amCi_yh8qxrN-98" value="" style="edgeStyle=none;rounded=0;orthogonalLoop=1;jettySize=auto;html=1;entryX=0.5;entryY=0;entryDx=0;entryDy=0;fontSize=15;endArrow=none;strokeWidth=8;strokeColor=#000099;" edge="1" parent="1" source="IPSGjuv_amCi_yh8qxrN-62" target="IPSGjuv_amCi_yh8qxrN-97">
          <mxGeometry relative="1" as="geometry">
            <mxPoint x="-7273.1865821683605" y="-3245.8841504284537" as="sourcePoint" />
            <mxPoint x="-6970" y="-3113.75" as="targetPoint" />
          </mxGeometry>
        </mxCell>
        <mxCell id="IPSGjuv_amCi_yh8qxrN-99" value="&lt;font style=&quot;font-size: 15px&quot; color=&quot;#000000&quot;&gt;Instance Renderer&lt;/font&gt;" style="shape=process;whiteSpace=wrap;html=1;backgroundOutline=1;fontSize=26;fontColor=#990000;strokeColor=#000000;strokeWidth=1;" vertex="1" parent="1">
          <mxGeometry x="-6590" y="-3295" width="170" height="60" as="geometry" />
        </mxCell>
        <mxCell id="IPSGjuv_amCi_yh8qxrN-100" value="" style="edgeStyle=none;rounded=0;orthogonalLoop=1;jettySize=auto;html=1;entryX=0.5;entryY=0;entryDx=0;entryDy=0;fontSize=15;endArrow=none;" edge="1" parent="1" source="IPSGjuv_amCi_yh8qxrN-66" target="IPSGjuv_amCi_yh8qxrN-99">
          <mxGeometry relative="1" as="geometry">
            <mxPoint x="-6319.757902830348" y="-3324.503504602547" as="sourcePoint" />
            <mxPoint x="-6610" y="-3175" as="targetPoint" />
          </mxGeometry>
        </mxCell>
        <mxCell id="IPSGjuv_amCi_yh8qxrN-101" value="&lt;font style=&quot;font-size: 15px&quot; color=&quot;#000000&quot;&gt;Instance Renderer&lt;/font&gt;" style="shape=process;whiteSpace=wrap;html=1;backgroundOutline=1;fontSize=26;fontColor=#990000;strokeColor=#000000;strokeWidth=1;" vertex="1" parent="1">
          <mxGeometry x="-6455.5" y="-3225" width="170" height="60" as="geometry" />
        </mxCell>
        <mxCell id="IPSGjuv_amCi_yh8qxrN-102" value="" style="edgeStyle=none;rounded=0;orthogonalLoop=1;jettySize=auto;html=1;entryX=0.5;entryY=0;entryDx=0;entryDy=0;fontSize=15;endArrow=none;" edge="1" parent="1" source="IPSGjuv_amCi_yh8qxrN-66" target="IPSGjuv_amCi_yh8qxrN-101">
          <mxGeometry relative="1" as="geometry">
            <mxPoint x="-6289.587866993294" y="-3290.4420839912364" as="sourcePoint" />
            <mxPoint x="-6440" y="-3070.5" as="targetPoint" />
          </mxGeometry>
        </mxCell>
        <mxCell id="IPSGjuv_amCi_yh8qxrN-103" value="&lt;font style=&quot;font-size: 15px&quot; color=&quot;#000000&quot;&gt;Instance Renderer&lt;/font&gt;" style="shape=process;whiteSpace=wrap;html=1;backgroundOutline=1;fontSize=26;fontColor=#990000;strokeColor=#000000;strokeWidth=1;" vertex="1" parent="1">
          <mxGeometry x="-6240" y="-3215" width="170" height="60" as="geometry" />
        </mxCell>
        <mxCell id="IPSGjuv_amCi_yh8qxrN-104" value="" style="edgeStyle=none;rounded=0;orthogonalLoop=1;jettySize=auto;html=1;entryX=0.5;entryY=0;entryDx=0;entryDy=0;fontSize=15;endArrow=none;" edge="1" parent="1" source="IPSGjuv_amCi_yh8qxrN-66" target="IPSGjuv_amCi_yh8qxrN-103">
          <mxGeometry relative="1" as="geometry">
            <mxPoint x="-6214.114383282962" y="-3277.5792642039078" as="sourcePoint" />
            <mxPoint x="-6155" y="-3055" as="targetPoint" />
          </mxGeometry>
        </mxCell>
        <mxCell id="IPSGjuv_amCi_yh8qxrN-105" value="&lt;font style=&quot;font-size: 15px&quot; color=&quot;#000000&quot;&gt;Class Renderer&lt;/font&gt;" style="shape=process;whiteSpace=wrap;html=1;backgroundOutline=1;fontSize=26;fontColor=#990000;strokeColor=#000000;strokeWidth=1;" vertex="1" parent="1">
          <mxGeometry x="-7240" y="-2405" width="170" height="60" as="geometry" />
        </mxCell>
        <mxCell id="IPSGjuv_amCi_yh8qxrN-106" value="" style="edgeStyle=none;rounded=0;orthogonalLoop=1;jettySize=auto;html=1;entryX=0.5;entryY=1;entryDx=0;entryDy=0;fontSize=15;endArrow=none;" edge="1" parent="1" source="IPSGjuv_amCi_yh8qxrN-88" target="IPSGjuv_amCi_yh8qxrN-105">
          <mxGeometry relative="1" as="geometry">
            <mxPoint x="-7012.8125" y="-2271" as="sourcePoint" />
            <mxPoint x="-7575" y="-2785" as="targetPoint" />
          </mxGeometry>
        </mxCell>
        <mxCell id="IPSGjuv_amCi_yh8qxrN-107" value="&lt;font style=&quot;font-size: 15px&quot; color=&quot;#000000&quot;&gt;Class Renderer&lt;/font&gt;" style="shape=process;whiteSpace=wrap;html=1;backgroundOutline=1;fontSize=26;fontColor=#990000;strokeColor=#000000;strokeWidth=1;" vertex="1" parent="1">
          <mxGeometry x="-7065" y="-2535" width="170" height="60" as="geometry" />
        </mxCell>
        <mxCell id="IPSGjuv_amCi_yh8qxrN-108" value="&lt;font style=&quot;font-size: 15px&quot; color=&quot;#000000&quot;&gt;Class Renderer&lt;/font&gt;" style="shape=process;whiteSpace=wrap;html=1;backgroundOutline=1;fontSize=26;fontColor=#990000;strokeColor=#000000;strokeWidth=1;" vertex="1" parent="1">
          <mxGeometry x="-6760" y="-2595" width="170" height="60" as="geometry" />
        </mxCell>
        <mxCell id="IPSGjuv_amCi_yh8qxrN-109" value="&lt;font style=&quot;font-size: 15px&quot; color=&quot;#000000&quot;&gt;Class Renderer A&lt;/font&gt;" style="shape=process;whiteSpace=wrap;html=1;backgroundOutline=1;fontSize=26;fontColor=#990000;strokeColor=#000000;strokeWidth=1;" vertex="1" parent="1">
          <mxGeometry x="-6500" y="-2595" width="170" height="60" as="geometry" />
        </mxCell>
        <mxCell id="IPSGjuv_amCi_yh8qxrN-110" value="&lt;font style=&quot;font-size: 15px&quot; color=&quot;#000000&quot;&gt;Class Renderer B&lt;/font&gt;" style="shape=process;whiteSpace=wrap;html=1;backgroundOutline=1;fontSize=26;fontColor=#990000;strokeColor=#000000;strokeWidth=1;" vertex="1" parent="1">
          <mxGeometry x="-6250" y="-2595" width="170" height="60" as="geometry" />
        </mxCell>
        <mxCell id="IPSGjuv_amCi_yh8qxrN-111" value="&lt;font style=&quot;font-size: 26px&quot; color=&quot;#000099&quot;&gt;&lt;b&gt;GROUP PERSPECTIVE&lt;/b&gt;&lt;/font&gt;" style="text;html=1;strokeColor=none;fillColor=none;align=center;verticalAlign=middle;whiteSpace=wrap;rounded=0;fontSize=15;" vertex="1" parent="1">
          <mxGeometry x="-7360" y="-3485" width="300" height="80" as="geometry" />
        </mxCell>
        <mxCell id="IPSGjuv_amCi_yh8qxrN-112" style="edgeStyle=none;rounded=0;orthogonalLoop=1;jettySize=auto;html=1;entryX=0.5;entryY=1;entryDx=0;entryDy=0;fontSize=15;strokeWidth=8;strokeColor=#990000;" edge="1" parent="1" source="IPSGjuv_amCi_yh8qxrN-5" target="IPSGjuv_amCi_yh8qxrN-29">
          <mxGeometry relative="1" as="geometry" />
        </mxCell>
        <mxCell id="IPSGjuv_amCi_yh8qxrN-113" value="" style="group" vertex="1" connectable="0" parent="1">
          <mxGeometry x="-9800" y="-2875" width="170" height="60" as="geometry" />
        </mxCell>
        <mxCell id="IPSGjuv_amCi_yh8qxrN-114" value="" style="group" vertex="1" connectable="0" parent="IPSGjuv_amCi_yh8qxrN-113">
          <mxGeometry width="170" height="60" as="geometry" />
        </mxCell>
        <mxCell id="IPSGjuv_amCi_yh8qxrN-115" value="Forum @ Lightningrod Labs" style="rounded=1;whiteSpace=wrap;html=1;fontSize=15;" vertex="1" parent="IPSGjuv_amCi_yh8qxrN-114">
          <mxGeometry width="170" height="60" as="geometry" />
        </mxCell>
        <mxCell id="IPSGjuv_amCi_yh8qxrN-116" value="" style="sketch=0;points=[[0.015,0.015,0],[0.985,0.015,0],[0.985,0.985,0],[0.015,0.985,0],[0.25,0,0],[0.5,0,0],[0.75,0,0],[1,0.25,0],[1,0.5,0],[1,0.75,0],[0.75,1,0],[0.5,1,0],[0.25,1,0],[0,0.75,0],[0,0.5,0],[0,0.25,0]];verticalLabelPosition=bottom;html=1;verticalAlign=top;aspect=fixed;align=center;pointerEvents=1;shape=mxgraph.cisco19.rect;prIcon=cisco_dna_center;fillColor=#FAFAFA;strokeColor=#005073;fontSize=15;fontColor=#000000;" vertex="1" parent="IPSGjuv_amCi_yh8qxrN-114">
          <mxGeometry y="40" width="20" height="20" as="geometry" />
        </mxCell>
        <mxCell id="IPSGjuv_amCi_yh8qxrN-117" value="" style="group" vertex="1" connectable="0" parent="1">
          <mxGeometry x="-9580" y="-2915" width="160" height="60" as="geometry" />
        </mxCell>
        <mxCell id="IPSGjuv_amCi_yh8qxrN-118" value="Where @ Lightningrod Labs" style="rounded=1;whiteSpace=wrap;html=1;fontSize=15;" vertex="1" parent="IPSGjuv_amCi_yh8qxrN-117">
          <mxGeometry width="160" height="60" as="geometry" />
        </mxCell>
        <mxCell id="IPSGjuv_amCi_yh8qxrN-119" value="" style="sketch=0;points=[[0.015,0.015,0],[0.985,0.015,0],[0.985,0.985,0],[0.015,0.985,0],[0.25,0,0],[0.5,0,0],[0.75,0,0],[1,0.25,0],[1,0.5,0],[1,0.75,0],[0.75,1,0],[0.5,1,0],[0.25,1,0],[0,0.75,0],[0,0.5,0],[0,0.25,0]];verticalLabelPosition=bottom;html=1;verticalAlign=top;aspect=fixed;align=center;pointerEvents=1;shape=mxgraph.cisco19.rect;prIcon=cisco_dna_center;fillColor=#FAFAFA;strokeColor=#005073;fontSize=15;fontColor=#000000;" vertex="1" parent="IPSGjuv_amCi_yh8qxrN-117">
          <mxGeometry y="40" width="20" height="20" as="geometry" />
        </mxCell>
        <mxCell id="IPSGjuv_amCi_yh8qxrN-120" value="" style="group" vertex="1" connectable="0" parent="1">
          <mxGeometry x="-9380" y="-2953.75" width="160" height="60" as="geometry" />
        </mxCell>
        <mxCell id="IPSGjuv_amCi_yh8qxrN-121" value="Notebooks @ Lightningrod Labs" style="rounded=1;whiteSpace=wrap;html=1;fontSize=15;" vertex="1" parent="IPSGjuv_amCi_yh8qxrN-120">
          <mxGeometry width="160" height="60" as="geometry" />
        </mxCell>
        <mxCell id="IPSGjuv_amCi_yh8qxrN-122" value="" style="sketch=0;points=[[0.015,0.015,0],[0.985,0.015,0],[0.985,0.985,0],[0.015,0.985,0],[0.25,0,0],[0.5,0,0],[0.75,0,0],[1,0.25,0],[1,0.5,0],[1,0.75,0],[0.75,1,0],[0.5,1,0],[0.25,1,0],[0,0.75,0],[0,0.5,0],[0,0.25,0]];verticalLabelPosition=bottom;html=1;verticalAlign=top;aspect=fixed;align=center;pointerEvents=1;shape=mxgraph.cisco19.rect;prIcon=cisco_dna_center;fillColor=#FAFAFA;strokeColor=#005073;fontSize=15;fontColor=#000000;" vertex="1" parent="IPSGjuv_amCi_yh8qxrN-120">
          <mxGeometry y="40" width="20" height="20" as="geometry" />
        </mxCell>
        <mxCell id="IPSGjuv_amCi_yh8qxrN-123" value="" style="sketch=0;points=[[0.015,0.015,0],[0.985,0.015,0],[0.985,0.985,0],[0.015,0.985,0],[0.25,0,0],[0.5,0,0],[0.75,0,0],[1,0.25,0],[1,0.5,0],[1,0.75,0],[0.75,1,0],[0.5,1,0],[0.25,1,0],[0,0.75,0],[0,0.5,0],[0,0.25,0]];verticalLabelPosition=bottom;html=1;verticalAlign=top;aspect=fixed;align=center;pointerEvents=1;shape=mxgraph.cisco19.rect;prIcon=cisco_dna_center;fillColor=#FAFAFA;strokeColor=#005073;fontSize=15;fontColor=#000000;" vertex="1" parent="IPSGjuv_amCi_yh8qxrN-120">
          <mxGeometry y="20" width="20" height="20" as="geometry" />
        </mxCell>
        <mxCell id="IPSGjuv_amCi_yh8qxrN-124" value="" style="group" vertex="1" connectable="0" parent="1">
          <mxGeometry x="-9180" y="-3113.75" width="160" height="63.25" as="geometry" />
        </mxCell>
        <mxCell id="IPSGjuv_amCi_yh8qxrN-125" value="Calendar @ Lightningrod Labs" style="rounded=1;whiteSpace=wrap;html=1;fontSize=15;" vertex="1" parent="IPSGjuv_amCi_yh8qxrN-124">
          <mxGeometry width="160" height="60" as="geometry" />
        </mxCell>
        <mxCell id="IPSGjuv_amCi_yh8qxrN-126" value="" style="sketch=0;points=[[0.015,0.015,0],[0.985,0.015,0],[0.985,0.985,0],[0.015,0.985,0],[0.25,0,0],[0.5,0,0],[0.75,0,0],[1,0.25,0],[1,0.5,0],[1,0.75,0],[0.75,1,0],[0.5,1,0],[0.25,1,0],[0,0.75,0],[0,0.5,0],[0,0.25,0]];verticalLabelPosition=bottom;html=1;verticalAlign=top;aspect=fixed;align=center;pointerEvents=1;shape=mxgraph.cisco19.rect;prIcon=cisco_dna_center;fillColor=#FAFAFA;strokeColor=#005073;fontSize=15;fontColor=#000000;" vertex="1" parent="IPSGjuv_amCi_yh8qxrN-124">
          <mxGeometry y="43.25" width="20" height="20" as="geometry" />
        </mxCell>
        <mxCell id="IPSGjuv_amCi_yh8qxrN-127" value="" style="group" vertex="1" connectable="0" parent="1">
          <mxGeometry x="-8800" y="-3175" width="120" height="60" as="geometry" />
        </mxCell>
        <mxCell id="IPSGjuv_amCi_yh8qxrN-128" value="Where @ Holochain in Action" style="rounded=1;whiteSpace=wrap;html=1;fontSize=15;" vertex="1" parent="IPSGjuv_amCi_yh8qxrN-127">
          <mxGeometry width="120" height="60" as="geometry" />
        </mxCell>
        <mxCell id="IPSGjuv_amCi_yh8qxrN-129" value="" style="sketch=0;points=[[0.015,0.015,0],[0.985,0.015,0],[0.985,0.985,0],[0.015,0.985,0],[0.25,0,0],[0.5,0,0],[0.75,0,0],[1,0.25,0],[1,0.5,0],[1,0.75,0],[0.75,1,0],[0.5,1,0],[0.25,1,0],[0,0.75,0],[0,0.5,0],[0,0.25,0]];verticalLabelPosition=bottom;html=1;verticalAlign=top;aspect=fixed;align=center;pointerEvents=1;shape=mxgraph.cisco19.rect;prIcon=cisco_dna_center;fillColor=#FAFAFA;strokeColor=#005073;fontSize=15;fontColor=#000000;" vertex="1" parent="IPSGjuv_amCi_yh8qxrN-127">
          <mxGeometry y="40" width="20" height="20" as="geometry" />
        </mxCell>
        <mxCell id="IPSGjuv_amCi_yh8qxrN-130" value="" style="group" vertex="1" connectable="0" parent="1">
          <mxGeometry x="-8650" y="-3070.5" width="170" height="60" as="geometry" />
        </mxCell>
        <mxCell id="IPSGjuv_amCi_yh8qxrN-131" value="Notebooks @ Holochain in Action" style="rounded=1;whiteSpace=wrap;html=1;fontSize=15;" vertex="1" parent="IPSGjuv_amCi_yh8qxrN-130">
          <mxGeometry width="170" height="60" as="geometry" />
        </mxCell>
        <mxCell id="IPSGjuv_amCi_yh8qxrN-132" value="" style="sketch=0;points=[[0.015,0.015,0],[0.985,0.015,0],[0.985,0.985,0],[0.015,0.985,0],[0.25,0,0],[0.5,0,0],[0.75,0,0],[1,0.25,0],[1,0.5,0],[1,0.75,0],[0.75,1,0],[0.5,1,0],[0.25,1,0],[0,0.75,0],[0,0.5,0],[0,0.25,0]];verticalLabelPosition=bottom;html=1;verticalAlign=top;aspect=fixed;align=center;pointerEvents=1;shape=mxgraph.cisco19.rect;prIcon=cisco_dna_center;fillColor=#FAFAFA;strokeColor=#005073;fontSize=15;fontColor=#000000;" vertex="1" parent="IPSGjuv_amCi_yh8qxrN-130">
          <mxGeometry y="40" width="20" height="20" as="geometry" />
        </mxCell>
        <mxCell id="IPSGjuv_amCi_yh8qxrN-133" value="" style="sketch=0;points=[[0.015,0.015,0],[0.985,0.015,0],[0.985,0.985,0],[0.015,0.985,0],[0.25,0,0],[0.5,0,0],[0.75,0,0],[1,0.25,0],[1,0.5,0],[1,0.75,0],[0.75,1,0],[0.5,1,0],[0.25,1,0],[0,0.75,0],[0,0.5,0],[0,0.25,0]];verticalLabelPosition=bottom;html=1;verticalAlign=top;aspect=fixed;align=center;pointerEvents=1;shape=mxgraph.cisco19.rect;prIcon=cisco_dna_center;fillColor=#FAFAFA;strokeColor=#005073;fontSize=15;fontColor=#000000;" vertex="1" parent="IPSGjuv_amCi_yh8qxrN-130">
          <mxGeometry x="20" y="40" width="20" height="20" as="geometry" />
        </mxCell>
        <mxCell id="IPSGjuv_amCi_yh8qxrN-134" value="" style="group" vertex="1" connectable="0" parent="1">
          <mxGeometry x="-8380" y="-3055" width="190" height="60" as="geometry" />
        </mxCell>
        <mxCell id="IPSGjuv_amCi_yh8qxrN-135" value="Calendar @ Holochain in Action" style="rounded=1;whiteSpace=wrap;html=1;fontSize=15;" vertex="1" parent="IPSGjuv_amCi_yh8qxrN-134">
          <mxGeometry width="190" height="60" as="geometry" />
        </mxCell>
        <mxCell id="IPSGjuv_amCi_yh8qxrN-136" value="" style="sketch=0;points=[[0.015,0.015,0],[0.985,0.015,0],[0.985,0.985,0],[0.015,0.985,0],[0.25,0,0],[0.5,0,0],[0.75,0,0],[1,0.25,0],[1,0.5,0],[1,0.75,0],[0.75,1,0],[0.5,1,0],[0.25,1,0],[0,0.75,0],[0,0.5,0],[0,0.25,0]];verticalLabelPosition=bottom;html=1;verticalAlign=top;aspect=fixed;align=center;pointerEvents=1;shape=mxgraph.cisco19.rect;prIcon=cisco_dna_center;fillColor=#FAFAFA;strokeColor=#005073;fontSize=15;fontColor=#000000;" vertex="1" parent="IPSGjuv_amCi_yh8qxrN-134">
          <mxGeometry y="40" width="20" height="20" as="geometry" />
        </mxCell>
        <mxCell id="IPSGjuv_amCi_yh8qxrN-137" value="" style="endArrow=classic;html=1;rounded=0;fontSize=15;strokeWidth=4;" edge="1" parent="1">
          <mxGeometry width="50" height="50" relative="1" as="geometry">
            <mxPoint x="-4480" y="-2651" as="sourcePoint" />
            <mxPoint x="-3680" y="-2651" as="targetPoint" />
          </mxGeometry>
        </mxCell>
        <mxCell id="IPSGjuv_amCi_yh8qxrN-138" value="" style="endArrow=classic;html=1;rounded=0;fontSize=15;strokeWidth=4;" edge="1" parent="1">
          <mxGeometry width="50" height="50" relative="1" as="geometry">
            <mxPoint x="-4480" y="-2651" as="sourcePoint" />
            <mxPoint x="-4480" y="-3311" as="targetPoint" />
          </mxGeometry>
        </mxCell>
        <mxCell id="IPSGjuv_amCi_yh8qxrN-139" value="&lt;font style=&quot;font-size: 19px&quot;&gt;&lt;b&gt;Groups&lt;/b&gt;&lt;/font&gt;" style="text;html=1;strokeColor=none;fillColor=none;align=center;verticalAlign=middle;whiteSpace=wrap;rounded=0;fontSize=15;" vertex="1" parent="1">
          <mxGeometry x="-3720" y="-2621" width="60" height="30" as="geometry" />
        </mxCell>
        <mxCell id="IPSGjuv_amCi_yh8qxrN-140" value="&lt;font style=&quot;font-size: 19px&quot;&gt;&lt;b&gt;Applets&lt;/b&gt;&lt;/font&gt;" style="text;html=1;strokeColor=none;fillColor=none;align=center;verticalAlign=middle;whiteSpace=wrap;rounded=0;fontSize=15;" vertex="1" parent="1">
          <mxGeometry x="-4580" y="-3331" width="60" height="30" as="geometry" />
        </mxCell>
        <mxCell id="IPSGjuv_amCi_yh8qxrN-141" value="" style="ellipse;whiteSpace=wrap;html=1;aspect=fixed;fontSize=19;strokeColor=#000000;strokeWidth=1;fillColor=#000000;" vertex="1" parent="1">
          <mxGeometry x="-4360" y="-3141" width="20" height="20" as="geometry" />
        </mxCell>
        <mxCell id="IPSGjuv_amCi_yh8qxrN-142" value="" style="ellipse;whiteSpace=wrap;html=1;aspect=fixed;fontSize=19;strokeColor=#000000;strokeWidth=1;fillColor=#000000;" vertex="1" parent="1">
          <mxGeometry x="-4360" y="-3012" width="20" height="20" as="geometry" />
        </mxCell>
        <mxCell id="IPSGjuv_amCi_yh8qxrN-143" value="" style="ellipse;whiteSpace=wrap;html=1;aspect=fixed;fontSize=19;strokeColor=#000000;strokeWidth=1;fillColor=#000000;" vertex="1" parent="1">
          <mxGeometry x="-4360" y="-2737" width="20" height="20" as="geometry" />
        </mxCell>
        <mxCell id="IPSGjuv_amCi_yh8qxrN-144" value="" style="ellipse;whiteSpace=wrap;html=1;aspect=fixed;fontSize=19;strokeColor=#000000;strokeWidth=1;fillColor=#000000;" vertex="1" parent="1">
          <mxGeometry x="-4220" y="-2861" width="20" height="20" as="geometry" />
        </mxCell>
        <mxCell id="IPSGjuv_amCi_yh8qxrN-145" value="" style="ellipse;whiteSpace=wrap;html=1;aspect=fixed;fontSize=19;strokeColor=#000000;strokeWidth=1;fillColor=#000000;" vertex="1" parent="1">
          <mxGeometry x="-4220" y="-3012" width="20" height="20" as="geometry" />
        </mxCell>
        <mxCell id="IPSGjuv_amCi_yh8qxrN-146" value="" style="ellipse;whiteSpace=wrap;html=1;aspect=fixed;fontSize=19;strokeColor=#000000;strokeWidth=1;fillColor=#000000;" vertex="1" parent="1">
          <mxGeometry x="-4060" y="-3012" width="20" height="20" as="geometry" />
        </mxCell>
        <mxCell id="IPSGjuv_amCi_yh8qxrN-147" value="" style="ellipse;whiteSpace=wrap;html=1;aspect=fixed;fontSize=19;strokeColor=#000000;strokeWidth=1;fillColor=#000000;" vertex="1" parent="1">
          <mxGeometry x="-4060" y="-3141" width="20" height="20" as="geometry" />
        </mxCell>
        <mxCell id="IPSGjuv_amCi_yh8qxrN-148" value="" style="ellipse;whiteSpace=wrap;html=1;aspect=fixed;fontSize=19;strokeColor=#000000;strokeWidth=1;fillColor=#000000;" vertex="1" parent="1">
          <mxGeometry x="-3940" y="-2737" width="20" height="20" as="geometry" />
        </mxCell>
        <mxCell id="IPSGjuv_amCi_yh8qxrN-149" value="" style="ellipse;whiteSpace=wrap;html=1;aspect=fixed;fontSize=19;strokeColor=#000000;strokeWidth=1;fillColor=#000000;" vertex="1" parent="1">
          <mxGeometry x="-3940" y="-2861" width="20" height="20" as="geometry" />
        </mxCell>
        <mxCell id="IPSGjuv_amCi_yh8qxrN-150" value="Lightningrod Labs" style="text;html=1;strokeColor=none;fillColor=none;align=center;verticalAlign=middle;whiteSpace=wrap;rounded=0;fontSize=19;rotation=-90;" vertex="1" parent="1">
          <mxGeometry x="-4450" y="-2581" width="192.5" height="85" as="geometry" />
        </mxCell>
        <mxCell id="IPSGjuv_amCi_yh8qxrN-151" value="Holochain in Action" style="text;html=1;strokeColor=none;fillColor=none;align=center;verticalAlign=middle;whiteSpace=wrap;rounded=0;fontSize=19;rotation=-90;" vertex="1" parent="1">
          <mxGeometry x="-4306.25" y="-2581" width="192.5" height="85" as="geometry" />
        </mxCell>
        <mxCell id="IPSGjuv_amCi_yh8qxrN-152" value="Group XY" style="text;html=1;strokeColor=none;fillColor=none;align=center;verticalAlign=middle;whiteSpace=wrap;rounded=0;fontSize=19;rotation=-90;" vertex="1" parent="1">
          <mxGeometry x="-4146.25" y="-2571" width="192.5" height="85" as="geometry" />
        </mxCell>
        <mxCell id="IPSGjuv_amCi_yh8qxrN-153" value="Group YZ" style="text;html=1;strokeColor=none;fillColor=none;align=center;verticalAlign=middle;whiteSpace=wrap;rounded=0;fontSize=19;rotation=-90;" vertex="1" parent="1">
          <mxGeometry x="-4026.25" y="-2571" width="192.5" height="85" as="geometry" />
        </mxCell>
        <mxCell id="IPSGjuv_amCi_yh8qxrN-154" value="Notebooks" style="text;html=1;strokeColor=none;fillColor=none;align=center;verticalAlign=middle;whiteSpace=wrap;rounded=0;fontSize=19;" vertex="1" parent="1">
          <mxGeometry x="-4640" y="-3146" width="110" height="30" as="geometry" />
        </mxCell>
        <mxCell id="IPSGjuv_amCi_yh8qxrN-155" value="Calendar" style="text;html=1;strokeColor=none;fillColor=none;align=center;verticalAlign=middle;whiteSpace=wrap;rounded=0;fontSize=19;" vertex="1" parent="1">
          <mxGeometry x="-4640" y="-3018" width="110" height="30" as="geometry" />
        </mxCell>
        <mxCell id="IPSGjuv_amCi_yh8qxrN-156" value="forum" style="text;html=1;strokeColor=none;fillColor=none;align=center;verticalAlign=middle;whiteSpace=wrap;rounded=0;fontSize=19;" vertex="1" parent="1">
          <mxGeometry x="-4637" y="-2881" width="110" height="30" as="geometry" />
        </mxCell>
        <mxCell id="IPSGjuv_amCi_yh8qxrN-157" value="SnapMail" style="text;html=1;strokeColor=none;fillColor=none;align=center;verticalAlign=middle;whiteSpace=wrap;rounded=0;fontSize=19;" vertex="1" parent="1">
          <mxGeometry x="-4640" y="-2742" width="110" height="30" as="geometry" />
        </mxCell>
        <mxCell id="IPSGjuv_amCi_yh8qxrN-158" value="" style="rounded=1;whiteSpace=wrap;html=1;fontSize=19;strokeColor=#0000FF;strokeWidth=3;fillColor=none;" vertex="1" parent="1">
          <mxGeometry x="-4413.75" y="-3381" width="120" height="995" as="geometry" />
        </mxCell>
        <mxCell id="IPSGjuv_amCi_yh8qxrN-159" value="" style="rounded=1;whiteSpace=wrap;html=1;fontSize=19;strokeColor=#990000;strokeWidth=3;fillColor=none;rotation=90;" vertex="1" parent="1">
          <mxGeometry x="-4156" y="-3610.75" width="120" height="1215.5" as="geometry" />
        </mxCell>
        <mxCell id="IPSGjuv_amCi_yh8qxrN-160" value="&lt;font color=&quot;#007800&quot;&gt;&lt;b&gt;arbitrary piping&lt;/b&gt;&lt;/font&gt;" style="text;html=1;strokeColor=none;fillColor=none;align=center;verticalAlign=middle;whiteSpace=wrap;rounded=0;fontSize=19;" vertex="1" parent="1">
          <mxGeometry x="-4086.25" y="-3231" width="146.25" height="30" as="geometry" />
        </mxCell>
        <mxCell id="IPSGjuv_amCi_yh8qxrN-161" value="&lt;font color=&quot;#990000&quot;&gt;&lt;b&gt;Agent view&lt;br&gt;-&amp;gt; Applet add-on&lt;/b&gt;&lt;/font&gt;" style="text;html=1;strokeColor=none;fillColor=none;align=center;verticalAlign=middle;whiteSpace=wrap;rounded=0;fontSize=19;fontColor=#0000FF;" vertex="1" parent="1">
          <mxGeometry x="-3725" y="-3111" width="300" height="30" as="geometry" />
        </mxCell>
        <mxCell id="IPSGjuv_amCi_yh8qxrN-162" value="" style="rounded=1;whiteSpace=wrap;html=1;fontSize=19;strokeColor=#007800;strokeWidth=3;fillColor=none;rotation=90;" vertex="1" parent="1">
          <mxGeometry x="-4240" y="-3061" width="500" height="235.5" as="geometry" />
        </mxCell>
        <mxCell id="IPSGjuv_amCi_yh8qxrN-163" value="&lt;font color=&quot;#0000ff&quot;&gt;&lt;b&gt;Group view&lt;/b&gt;&lt;/font&gt;" style="text;html=1;strokeColor=none;fillColor=none;align=center;verticalAlign=middle;whiteSpace=wrap;rounded=0;fontSize=19;" vertex="1" parent="1">
          <mxGeometry x="-4423.12" y="-3421" width="146.25" height="30" as="geometry" />
        </mxCell>
      </root>
    </mxGraphModel>
  </diagram>
</mxfile>
